<?xml version="1.0" encoding="UTF-8" standalone="no"?>
<!-- Created with Inkscape (http://www.inkscape.org/) -->

<svg
   version="1.1"
   id="svg2"
   width="920.66382"
   height="1167.2837"
   viewBox="0 0 920.66383 1167.2837"
   sodipodi:docname="castle.svg"
   inkscape:version="1.2.1 (9c6d41e410, 2022-07-14)"
   xmlns:inkscape="http://www.inkscape.org/namespaces/inkscape"
   xmlns:sodipodi="http://sodipodi.sourceforge.net/DTD/sodipodi-0.dtd"
   xmlns="http://www.w3.org/2000/svg"
   xmlns:svg="http://www.w3.org/2000/svg">
  <defs
     id="defs6">
    <clipPath
       clipPathUnits="userSpaceOnUse"
       id="clipPath20">
      <path
         d="M 0,1217.008 H 1617.008 V 0 H 0 Z"
         id="path18" />
    </clipPath>
  </defs>
  <sodipodi:namedview
     id="namedview4"
     pagecolor="#ffffff"
     bordercolor="#111111"
     borderopacity="1"
     inkscape:showpageshadow="0"
     inkscape:pageopacity="0"
     inkscape:pagecheckerboard="1"
     inkscape:deskcolor="#d1d1d1"
     showgrid="false"
     inkscape:zoom="0.5269061"
     inkscape:cx="469.72316"
     inkscape:cy="676.59114"
     inkscape:window-width="1551"
     inkscape:window-height="1032"
     inkscape:window-x="17"
     inkscape:window-y="56"
     inkscape:window-maximized="0"
     inkscape:current-layer="g10">
    <inkscape:page
       x="0"
       y="0"
       id="page8"
       width="920.66382"
       height="1167.2837" />
  </sodipodi:namedview>
  <g
     id="g10"
     inkscape:groupmode="layer"
     inkscape:label="Page 1"
     transform="matrix(1.3333333,0,0,-1.3333333,-641.87678,1395.2144)">
    <path
       d="M 928.385,408.803 H 721.761 v 264.102 h 206.624 z"
       style="fill:#ffffff;fill-opacity:1;fill-rule:nonzero;stroke:#231916;stroke-width:28.076;stroke-linecap:butt;stroke-linejoin:miter;stroke-miterlimit:10;stroke-dasharray:none;stroke-opacity:1"
       id="path12" />
    <g
       id="g14">
      <g
         id="g16"
         clip-path="url(#clipPath20)">
        <g
           id="g22"
           transform="translate(884.3203,529.9744)">
          <path
             d="m 0,0 c 0.056,-0.462 0.087,-0.93 0.087,-1.405 0,-7.299 -6.763,-13.215 -15.105,-13.215 -8.343,0 -15.106,5.916 -15.106,13.215 0,0.475 0.032,0.943 0.088,1.405 L -39.5,0 c 0.055,-0.462 0.087,-0.93 0.087,-1.405 0,-7.299 -6.763,-13.215 -15.106,-13.215 -8.342,0 -15.105,5.916 -15.105,13.215 0,0.475 0.031,0.943 0.087,1.405 h -12.454 c 0.056,-0.462 0.087,-0.93 0.087,-1.405 0,-7.299 -6.763,-13.215 -15.105,-13.215 -8.343,0 -15.106,5.916 -15.106,13.215 0,0.475 0.032,0.943 0.087,1.405 H -141.27 V -88.733 H 14.136 V 0 Z"
             style="fill:#ffffff;fill-opacity:1;fill-rule:nonzero;stroke:none"
             id="path24" />
        </g>
        <g
           id="g26"
           transform="translate(884.3203,529.9744)">
          <path
             d="m 0,0 c 0.056,-0.462 0.087,-0.93 0.087,-1.405 0,-7.299 -6.763,-13.215 -15.105,-13.215 -8.343,0 -15.106,5.916 -15.106,13.215 0,0.475 0.032,0.943 0.088,1.405 L -39.5,0 c 0.055,-0.462 0.087,-0.93 0.087,-1.405 0,-7.299 -6.763,-13.215 -15.106,-13.215 -8.342,0 -15.105,5.916 -15.105,13.215 0,0.475 0.031,0.943 0.087,1.405 h -12.454 c 0.056,-0.462 0.087,-0.93 0.087,-1.405 0,-7.299 -6.763,-13.215 -15.105,-13.215 -8.343,0 -15.106,5.916 -15.106,13.215 0,0.475 0.032,0.943 0.087,1.405 H -141.27 V -88.733 H 14.136 V 0 Z"
             style="fill:none;stroke:#231916;stroke-width:16;stroke-linecap:butt;stroke-linejoin:miter;stroke-miterlimit:10;stroke-dasharray:none;stroke-opacity:1"
             id="path28" />
        </g>
        <path
           d="M 758.776,454.054 H 637.588 v 134.02 h 121.188 z"
           style="fill:#ffffff;fill-opacity:1;fill-rule:nonzero;stroke:#231916;stroke-width:20;stroke-linecap:butt;stroke-linejoin:miter;stroke-miterlimit:10;stroke-dasharray:none;stroke-opacity:1"
           id="path30" />
        <path
           d="M 1012.558,400.324 H 891.37 v 134.02 h 121.188 z"
           style="fill:#ffffff;fill-opacity:1;fill-rule:nonzero;stroke:#231916;stroke-width:20;stroke-linecap:butt;stroke-linejoin:miter;stroke-miterlimit:10;stroke-dasharray:none;stroke-opacity:1"
           id="path32" />
        <path
           d="m 997.904,181.866 h -345.66 v 270.55 h 345.66 z"
           style="fill:#ffffff;fill-opacity:1;fill-rule:nonzero;stroke:#231916;stroke-width:20;stroke-linecap:butt;stroke-linejoin:miter;stroke-miterlimit:10;stroke-dasharray:none;stroke-opacity:1"
           id="path34" />
        <path
           d="M 652.24,181.862 H 507.09 v 326.389 h 145.15 z"
           style="fill:#ffffff;fill-opacity:1;fill-rule:nonzero;stroke:#231916;stroke-width:21.367;stroke-linecap:butt;stroke-linejoin:miter;stroke-miterlimit:10;stroke-dasharray:none;stroke-opacity:1"
           id="path36" />
        <path
           d="M 1149.387,181.862 H 997.906 v 326.389 h 151.481 z"
           style="fill:#ffffff;fill-opacity:1;fill-rule:nonzero;stroke:#231916;stroke-width:21.828;stroke-linecap:butt;stroke-linejoin:miter;stroke-miterlimit:10;stroke-dasharray:none;stroke-opacity:1"
           id="path38" />
        <g
           id="g40"
           transform="translate(825.0733,881.6847)">
          <path
             d="M 0,0 -119.364,-206.744 H 119.364 Z"
             style="fill:#c40f24;fill-opacity:1;fill-rule:nonzero;stroke:none"
             id="path42" />
        </g>
        <g
           id="g44"
           transform="translate(825.0733,881.6847)">
          <path
             d="M 0,0 -119.364,-206.744 H 119.364 Z"
             style="fill:none;stroke:#231916;stroke-width:20;stroke-linecap:butt;stroke-linejoin:miter;stroke-miterlimit:10;stroke-dasharray:none;stroke-opacity:1"
             id="path46" />
        </g>
        <g
           id="g48"
           transform="translate(698.1822,731.1759)">
          <path
             d="M 0,0 -89.032,-154.208 H 89.032 Z"
             style="fill:#c40f24;fill-opacity:1;fill-rule:nonzero;stroke:none"
             id="path50" />
        </g>
        <g
           id="g52"
           transform="translate(698.1822,731.1759)">
          <path
             d="M 0,0 -89.032,-154.208 H 89.032 Z"
             style="fill:none;stroke:#231916;stroke-width:20;stroke-linecap:butt;stroke-linejoin:miter;stroke-miterlimit:10;stroke-dasharray:none;stroke-opacity:1"
             id="path54" />
        </g>
        <g
           id="g56"
           transform="translate(951.9644,677.4464)">
          <path
             d="M 0,0 -89.032,-154.208 H 89.032 Z"
             style="fill:#c40f24;fill-opacity:1;fill-rule:nonzero;stroke:none"
             id="path58" />
        </g>
        <g
           id="g60"
           transform="translate(951.9644,677.4464)">
          <path
             d="M 0,0 -89.032,-154.208 H 89.032 Z"
             style="fill:none;stroke:#231916;stroke-width:20;stroke-linecap:butt;stroke-linejoin:miter;stroke-miterlimit:10;stroke-dasharray:none;stroke-opacity:1"
             id="path62" />
        </g>
        <g
           id="g64"
           transform="translate(793.6167,454.0536)">
          <path
             d="M 0,0 C 0,16.436 11.969,39.225 26.733,39.225 41.497,39.225 53.465,16.436 53.465,0 Z"
             style="fill:#231916;fill-opacity:1;fill-rule:nonzero;stroke:none"
             id="path66" />
        </g>
        <path
           d="m 562.397,400.324 h -30.653 v 48.756 h 30.653 z"
           style="fill:#231916;fill-opacity:1;fill-rule:nonzero;stroke:none"
           id="path68" />
        <path
           d="m 625.249,400.324 h -25.782 v 48.756 h 25.782 z"
           style="fill:#231916;fill-opacity:1;fill-rule:nonzero;stroke:none"
           id="path70" />
        <path
           d="m 1089.746,400.324 h 30.654 v 48.756 h -30.654 z"
           style="fill:#231916;fill-opacity:1;fill-rule:nonzero;stroke:none"
           id="path72" />
        <path
           d="m 793.617,594.938 h 30.654 v 48.756 h -30.654 z"
           style="fill:#231916;fill-opacity:1;fill-rule:nonzero;stroke:none"
           id="path74" />
        <path
           d="m 701.656,505.596 h 30.653 v 48.756 h -30.653 z"
           style="fill:#231916;fill-opacity:1;fill-rule:nonzero;stroke:none"
           id="path76" />
        <path
           d="m 921.311,454.054 h 30.653 v 48.756 h -30.653 z"
           style="fill:#231916;fill-opacity:1;fill-rule:nonzero;stroke:none"
           id="path78" />
        <path
           d="m 1026.894,400.324 h 25.782 v 48.756 h -25.782 z"
           style="fill:#231916;fill-opacity:1;fill-rule:nonzero;stroke:none"
           id="path80" />
        <g
           id="g82"
           transform="translate(1001.4455,584.7372)">
          <path
             d="m 0,0 c -0.063,-0.525 -0.099,-1.056 -0.099,-1.596 0,-8.29 7.682,-15.01 17.157,-15.01 9.476,0 17.158,6.72 17.158,15.01 0,0.54 -0.036,1.071 -0.099,1.596 h 10.749 c -0.063,-0.525 -0.099,-1.056 -0.099,-1.596 0,-8.29 7.682,-15.01 17.157,-15.01 9.476,0 17.158,6.72 17.158,15.01 0,0.54 -0.036,1.071 -0.099,1.596 h 14.146 c -0.064,-0.525 -0.099,-1.056 -0.099,-1.596 0,-8.29 7.681,-15.01 17.157,-15.01 9.476,0 17.158,6.72 17.158,15.01 0,0.54 -0.036,1.071 -0.1,1.596 H 160.46 V -100.787 H -16.057 V 0 Z"
             style="fill:#ffffff;fill-opacity:1;fill-rule:nonzero;stroke:none"
             id="path84" />
        </g>
        <g
           id="g86"
           transform="translate(1001.4455,584.7372)">
          <path
             d="m 0,0 c -0.063,-0.525 -0.099,-1.056 -0.099,-1.596 0,-8.29 7.682,-15.01 17.157,-15.01 9.476,0 17.158,6.72 17.158,15.01 0,0.54 -0.036,1.071 -0.099,1.596 h 10.749 c -0.063,-0.525 -0.099,-1.056 -0.099,-1.596 0,-8.29 7.682,-15.01 17.157,-15.01 9.476,0 17.158,6.72 17.158,15.01 0,0.54 -0.036,1.071 -0.099,1.596 h 14.146 c -0.064,-0.525 -0.099,-1.056 -0.099,-1.596 0,-8.29 7.681,-15.01 17.157,-15.01 9.476,0 17.158,6.72 17.158,15.01 0,0.54 -0.036,1.071 -0.1,1.596 H 160.46 V -100.787 H -16.057 V 0 Z"
             style="fill:none;stroke:#231916;stroke-width:20;stroke-linecap:round;stroke-linejoin:round;stroke-miterlimit:10;stroke-dasharray:none;stroke-opacity:1"
             id="path88" />
        </g>
        <g
           id="g90"
           transform="translate(651.8666,584.7372)">
          <path
             d="m 0,0 c 0.063,-0.525 0.099,-1.056 0.099,-1.596 0,-8.29 -7.682,-15.01 -17.157,-15.01 -9.476,0 -17.158,6.72 -17.158,15.01 0,0.54 0.036,1.071 0.099,1.596 h -10.749 c 0.063,-0.525 0.099,-1.056 0.099,-1.596 0,-8.29 -7.682,-15.01 -17.157,-15.01 -9.476,0 -17.158,6.72 -17.158,15.01 0,0.54 0.036,1.071 0.099,1.596 h -14.146 c 0.064,-0.525 0.099,-1.056 0.099,-1.596 0,-8.29 -7.681,-15.01 -17.157,-15.01 -9.476,0 -17.158,6.72 -17.158,15.01 0,0.54 0.036,1.071 0.1,1.596 h -33.214 V -100.787 H 16.057 V 0 Z"
             style="fill:#ffffff;fill-opacity:1;fill-rule:nonzero;stroke:none"
             id="path92" />
        </g>
        <g
           id="g94"
           transform="translate(651.8666,584.7372)">
          <path
             d="m 0,0 c 0.063,-0.525 0.099,-1.056 0.099,-1.596 0,-8.29 -7.682,-15.01 -17.157,-15.01 -9.476,0 -17.158,6.72 -17.158,15.01 0,0.54 0.036,1.071 0.099,1.596 h -10.749 c 0.063,-0.525 0.099,-1.056 0.099,-1.596 0,-8.29 -7.682,-15.01 -17.157,-15.01 -9.476,0 -17.158,6.72 -17.158,15.01 0,0.54 0.036,1.071 0.099,1.596 h -14.146 c 0.064,-0.525 0.099,-1.056 0.099,-1.596 0,-8.29 -7.681,-15.01 -17.157,-15.01 -9.476,0 -17.158,6.72 -17.158,15.01 0,0.54 0.036,1.071 0.1,1.596 h -33.214 V -100.787 H 16.057 V 0 Z"
             style="fill:none;stroke:#231916;stroke-width:20;stroke-linecap:round;stroke-linejoin:round;stroke-miterlimit:10;stroke-dasharray:none;stroke-opacity:1"
             id="path96" />
        </g>
        <g
           id="g98"
           transform="translate(888.6981,181.8662)">
          <path
             d="m 0,0 h -127.247 v 134.01 c 0,35.139 28.485,63.624 63.623,63.624 v 0 C -28.485,197.634 0,169.149 0,134.01 Z"
             style="fill:#6a3a07;fill-opacity:1;fill-rule:nonzero;stroke:none"
             id="path100" />
        </g>
        <g
           id="g102"
           transform="translate(888.6981,181.8662)">
          <path
             d="m 0,0 h -127.247 v 134.01 c 0,35.139 28.485,63.624 63.623,63.624 v 0 C -28.485,197.634 0,169.149 0,134.01 Z"
             style="fill:none;stroke:#231916;stroke-width:20;stroke-linecap:butt;stroke-linejoin:miter;stroke-miterlimit:10;stroke-dasharray:none;stroke-opacity:1"
             id="path104" />
        </g>
        <g
           id="g106"
           transform="translate(800.1474,219.7792)">
          <path
             d="m 0,0 c -1.364,0 -2.47,-1.106 -2.47,-2.47 v -30.71 c 0,-1.364 1.106,-2.47 2.47,-2.47 1.364,0 2.47,1.106 2.47,2.47 V -2.47 C 2.47,-1.106 1.364,0 0,0"
             style="fill:#231916;fill-opacity:1;fill-rule:nonzero;stroke:none"
             id="path108" />
        </g>
        <g
           id="g110"
           transform="translate(814.961,209.7533)">
          <path
             d="m 0,0 c -1.364,0 -2.47,-0.795 -2.47,-1.775 v -22.074 c 0,-0.98 1.106,-1.775 2.47,-1.775 1.364,0 2.47,0.795 2.47,1.775 V -1.775 C 2.47,-0.795 1.364,0 0,0"
             style="fill:#231916;fill-opacity:1;fill-rule:nonzero;stroke:none"
             id="path112" />
        </g>
        <g
           id="g114"
           transform="translate(785.3337,234.1006)">
          <path
             d="m 0,0 c -1.364,0 -2.47,-1.55 -2.47,-3.462 v -43.047 c 0,-1.912 1.106,-3.462 2.47,-3.462 1.364,0 2.47,1.55 2.47,3.462 V -3.462 C 2.47,-1.55 1.364,0 0,0"
             style="fill:#231916;fill-opacity:1;fill-rule:nonzero;stroke:none"
             id="path116" />
        </g>
        <g
           id="g118"
           transform="translate(847.7113,334.834)">
          <path
             d="m 0,0 c 1.364,0 2.47,1.106 2.47,2.47 v 30.71 c 0,1.364 -1.106,2.47 -2.47,2.47 -1.364,0 -2.47,-1.106 -2.47,-2.47 V 2.47 C -2.47,1.106 -1.364,0 0,0"
             style="fill:#231916;fill-opacity:1;fill-rule:nonzero;stroke:none"
             id="path120" />
        </g>
        <g
           id="g122"
           transform="translate(832.8977,344.8598)">
          <path
             d="m 0,0 c 1.364,0 2.47,0.795 2.47,1.775 v 22.074 c 0,0.98 -1.106,1.775 -2.47,1.775 -1.364,0 -2.47,-0.795 -2.47,-1.775 V 1.775 C -2.47,0.795 -1.364,0 0,0"
             style="fill:#231916;fill-opacity:1;fill-rule:nonzero;stroke:none"
             id="path124" />
        </g>
        <g
           id="g126"
           transform="translate(862.5249,320.5125)">
          <path
             d="m 0,0 c 1.364,0 2.47,1.55 2.47,3.462 v 43.047 c 0,1.912 -1.106,3.462 -2.47,3.462 -1.364,0 -2.47,-1.55 -2.47,-3.462 V 3.462 C -2.47,1.55 -1.364,0 0,0"
             style="fill:#231916;fill-opacity:1;fill-rule:nonzero;stroke:none"
             id="path128" />
        </g>
        <path
           d="M 888.698,259.738 H 761.451 v 22.455 h 127.247 z"
           style="fill:#231916;fill-opacity:1;fill-rule:nonzero;stroke:none"
           id="path130" />
        <g
           id="g132"
           transform="translate(862.8158,271.5849)">
          <path
             d="M 0,0 -22.184,-22.184 -44.368,0 -22.184,22.184 Z"
             style="fill:#231916;fill-opacity:1;fill-rule:nonzero;stroke:none"
             id="path134" />
        </g>
        <g
           id="g136"
           transform="translate(1056.3818,939.9952)">
          <path
             d="M 0,0 C -74.63,75.056 -149.26,-31.754 -223.89,43.301 V -43.301 C -149.26,-89.489 -74.63,46.188 0,0"
             style="fill:#006935;fill-opacity:1;fill-rule:nonzero;stroke:none"
             id="path138" />
        </g>
        <g
           id="g140"
           transform="translate(1056.3818,939.9952)">
          <path
             d="M 0,0 C -74.63,75.056 -149.26,-31.754 -223.89,43.301 V -43.301 C -149.26,-89.489 -74.63,46.188 0,0 Z"
             style="fill:none;stroke:#231916;stroke-width:20;stroke-linecap:round;stroke-linejoin:round;stroke-miterlimit:10;stroke-dasharray:none;stroke-opacity:1"
             id="path142" />
        </g>
        <g
           id="g144"
           transform="translate(824.9828,1002.5496)">
          <path
             d="M 0,0 V -128.324"
             style="fill:none;stroke:#231916;stroke-width:20;stroke-linecap:butt;stroke-linejoin:miter;stroke-miterlimit:10;stroke-dasharray:none;stroke-opacity:1"
             id="path146" />
        </g>
        <g
           id="g148"
           transform="translate(846.3689,1015.0248)">
          <path
             d="m 0,0 c 0,-11.811 -9.575,-21.386 -21.386,-21.386 -11.811,0 -21.386,9.575 -21.386,21.386 0,11.811 9.575,21.386 21.386,21.386 C -9.575,21.386 0,11.811 0,0 Z"
             style="fill:none;stroke:#231916;stroke-width:20;stroke-linecap:butt;stroke-linejoin:miter;stroke-miterlimit:10;stroke-dasharray:none;stroke-opacity:1"
             id="path150" />
        </g>
        <g
           id="g152"
           transform="translate(652.2444,408.8031)">
          <path
             d="M 0,0 H 345.66"
             style="fill:none;stroke:#231916;stroke-width:16;stroke-linecap:butt;stroke-linejoin:miter;stroke-miterlimit:10;stroke-dasharray:none;stroke-opacity:1"
             id="path154" />
        </g>
      </g>
    </g>
  </g>
</svg>
