<svg xmlns="http://www.w3.org/2000/svg" width="445.083" height="333.283"><g style="display:inline"><path d="M0 0h-333.812l38.092 249.962h257.203z" style="display:inline;fill:#727171;fill-opacity:1;fill-rule:nonzero;stroke:none" transform="matrix(1.33333 0 0 -1.33333 445.083 333.283)"/><path d="M0 0h-59.65v50.847c0 16.472 13.353 29.825 29.825 29.825S0 67.319 0 50.847Z" style="display:inline;fill:#231815;fill-opacity:1;fill-rule:nonzero;stroke:none" transform="matrix(1.33333 0 0 -1.33333 257.931 333.283)"/><path d="M676.787 113.231h-30.96v35.083c0 8.55 6.93 15.48 15.48 15.48s15.48-6.93 15.48-15.48zM868.235 113.231h-30.96v35.083c0 8.55 6.93 15.48 15.48 15.48s15.48-6.93 15.48-15.48z" style="display:inline;fill:#231815;fill-opacity:1;fill-rule:nonzero;stroke:none" transform="matrix(1.33333 0 0 -1.33333 -786.833 430.476)"/><path d="M681.178 107.554h-39.743v11.355h39.743zM872.626 107.554h-39.743v11.355h39.743z" style="display:inline;fill:#595757;fill-opacity:1;fill-rule:nonzero;stroke:#595757;stroke-width:.798;stroke-linecap:butt;stroke-linejoin:miter;stroke-miterlimit:10;stroke-dasharray:none;stroke-opacity:1" transform="matrix(1.33333 0 0 -1.33333 -786.833 430.476)"/></g></svg>